{
  "asset": {
    "generator": "Khronos glTF Blender I/O v1.6.16",
    "version": "2.0"
  },
  "extensionsUsed": [
    "KHR_texture_transform"
  ],
  "extensionsRequired": [
    "KHR_texture_transform"
  ],
  "scene": 0,
  "scenes": [
    {
      "name": "Scene",
      "nodes": [
        0
      ]
    }
  ],
  "nodes": [
    {
      "mesh": 0,
      "name": "sphere_gltf"
    }
  ],
  "materials": [
    {
      "doubleSided": true,
      "name": "snow_04",
      "normalTexture": {
        "extensions": {
          "KHR_texture_transform": {
            "offset": [
              0,
              -2
            ],
            "scale": [
              3,
              3
            ]
          }
        },
        "index": 0
      },
      "pbrMetallicRoughness": {
        "baseColorTexture": {
          "extensions": {
            "KHR_texture_transform": {
              "offset": [
                0,
                -2
              ],
              "scale": [
                3,
                3
              ]
            }
          },
          "index": 1
        },
        "metallicFactor": 0,
        "metallicRoughnessTexture": {
          "extensions": {
            "KHR_texture_transform": {
              "offset": [
                0,
                -2
              ],
              "scale": [
                3,
                3
              ]
            }
          },
          "index": 2
        }
      }
    }
  ],
  "meshes": [
    {
      "name": "Sphere.001",
      "primitives": [
        {
          "attributes": {
            "POSITION": 0,
            "NORMAL": 1,
            "TEXCOORD_0": 2
          },
          "indices": 3,
          "material": 0
        }
      ]
    }
  ],
  "textures": [
    {
      "sampler": 0,
      "source": 0
    },
    {
      "sampler": 0,
      "source": 1
    },
    {
      "sampler": 0,
      "source": 2
    }
  ],
  "images": [
    {
      "mimeType": "image/jpeg",
      "name": "snow_04_nor_gl_4k",
      "uri": "textures/snow_04_nor_gl_4k.jpg"
    },
    {
      "mimeType": "image/jpeg",
      "name": "snow_04_diff_4k",
      "uri": "textures/snow_04_diff_4k.jpg"
    },
    {
      "mimeType": "image/jpeg",
      "name": "snow_04_rough_4k",
      "uri": "textures/snow_04_rough_4k.jpg"
    }
  ],
  "accessors": [
    {
      "bufferView": 0,
      "componentType": 5126,
      "count": 53850,
      "max": [
        2.025954008102417,
        2.041724920272827,
        2.0414185523986816
      ],
      "min": [
        -2.0259528160095215,
        -2.0416111946105957,
        -2.0414223670959473
      ],
      "type": "VEC3"
    },
    {
      "bufferView": 1,
      "componentType": 5126,
      "count": 53850,
      "type": "VEC3"
    },
    {
      "bufferView": 2,
      "componentType": 5126,
      "count": 53850,
      "type": "VEC2"
    },
    {
      "bufferView": 3,
      "componentType": 5123,
      "count": 322170,
      "type": "SCALAR"
    }
  ],
  "bufferViews": [
    {
      "buffer": 0,
      "byteLength": 646200,
      "byteOffset": 0
    },
    {
      "buffer": 0,
      "byteLength": 646200,
      "byteOffset": 646200
    },
    {
      "buffer": 0,
      "byteLength": 430800,
      "byteOffset": 1292400
    },
    {
      "buffer": 0,
      "byteLength": 644340,
      "byteOffset": 1723200
    }
  ],
  "samplers": [
    {
      "magFilter": 9729,
      "minFilter": 9987
    }
  ],
  "buffers": [
    {
      "byteLength": 2367540,
      "uri": "snow_04.bin"
    }
  ]
}